# xmcd
#
# Track frame offsets:
#	150
#	18336
#	41623
#	56852
#	77096
#	96892
#	114714
#	128643
#
# Disc length: 1986 seconds
#
# Revision: 1
# Processed by: cddbd v1.4PL0 Copyright (c) Steve Scherf et al.
# Submitted via: audiograbber 1.82.02
#
DISCID=6407c008
DTITLE=Various Artist - WAR Summer Sampler
DYEAR=1900
DGENRE=
TTITLE0=Work To Do (Maceo Parker)
TTITLE1=Rabbits In The Pea Patch (Maceo Parker)
TTITLE2=Hold On (Melissa Ferrick)
TTITLE3=Freedom (acoustic) (Melissa Ferrick)
TTITLE4=Death Of A Popular Song (Tim Finn)
TTITLE5=Underwater Mountain (Tim Finn)
TTITLE6=What If There's A Fire (House of Large Sizes)
TTITLE7=Ball Dropper - Crank-American (HOLS)
EXTD=
EXTT0=
EXTT1=
EXTT2=
EXTT3=
EXTT4=
EXTT5=
EXTT6=
EXTT7=
PLAYORDER=
